<!-- <svg fill="none" class="icon icon-search" viewBox="0 0 18 19"><path fill="currentColor" fill-rule="evenodd" d="M11.03 11.68A5.784 5.784 0 1 1 2.85 3.5a5.784 5.784 0 0 1 8.18 8.18m.26 1.12a6.78 6.78 0 1 1 .72-.7l5.4 5.4a.5.5 0 1 1-.71.7z" clip-rule="evenodd"/></svg> -->


<svg width="36" height="36" viewBox="0 0 36 36" fill="none" xmlns="http://www.w3.org/2000/svg">
<path d="M15.5458 4.50002C14.0845 4.48299 12.6343 4.7561 11.2793 5.30354C9.92432 5.85098 8.69141 6.66185 7.65203 7.68919C6.61266 8.71653 5.78747 9.9399 5.22428 11.2884C4.66109 12.637 4.37109 14.0839 4.37109 15.5453C4.37109 17.0067 4.66109 18.4536 5.22428 19.8021C5.78747 21.1506 6.61266 22.374 7.65203 23.4013C8.69141 24.4287 9.92432 25.2396 11.2793 25.787C12.6343 26.3344 14.0845 26.6075 15.5458 26.5905C18.4529 26.5566 21.2294 25.378 23.2732 23.3103C25.3169 21.2426 26.4631 18.4526 26.4631 15.5453C26.4631 12.638 25.3169 9.84791 23.2732 7.78021C21.2294 5.7125 18.4529 4.5339 15.5458 4.50002Z" stroke="#2B1A13" stroke-width="2" stroke-miterlimit="10"/>
<path d="M23.7852 23.7871L31.4997 31.5016" stroke="#2B1A13" stroke-width="2" stroke-miterlimit="10" stroke-linecap="round"/>
</svg>
